<svg xmlns="http://www.w3.org/2000/svg" baseProfile="full" version="1.1" width="310px" height="310px" style="fill: none; width: 310px; height: 310px; stroke-width: 15;"><path d="M170,65 A30,30 0 0,0 140,95 L140,95 L140,245 A30,30 0 0,0 170,215 L170,215 L170,65 " style="stroke-width: 15; stroke-linecap: round; stroke-linejoin: round; stroke: rgb(255, 215, 0); fill: rgb(255, 215, 0);"/><path d="M170,140 A30,30 0 0,1 200,110 A30,30 0 0,1 230,140 L230,140 L200,170 A30,30 0 0,0 170,140 M170,65 A30,30 0 0,1 200,95 L200,95 L230,65 A30,30 0 0,0 200,35 A30,30 0 0,0 170,65 M110,215 L110,215 L80,245 A30,30 0 0,0 110,275 A30,30 0 0,0 140,245 A30,30 0 0,1 110,215 " style="stroke-width: 15; stroke-linecap: round; stroke-linejoin: round; stroke: rgb(255, 215, 0); fill: rgb(255, 215, 0);"/><path d="M80,245 A30,30 0 0,0 110,275 A30,30 0 0,0 140,245 L140,245 A30,30 0 0,0 170,215 M140,245 L140,245 L140,95 A30,30 0 0,1 170,65 A30,30 0 0,1 200,95 L200,95 L230,65 A30,30 0 0,0 200,35 A30,30 0 0,0 170,65 M80,245 L80,245 L110,215 A30,30 0 0,0 140,245 M140,170 A30,30 0 0,1 170,140 A30,30 0 0,1 200,170 L200,170 L230,140 A30,30 0 0,0 200,110 A30,30 0 0,0 170,140 M170,215 L170,215 L170,65 " style="stroke-width: 6; stroke-linecap: round; stroke-linejoin: round; stroke: rgb(34, 34, 34); fill: none;"/></svg>