<svg xmlns="http://www.w3.org/2000/svg" baseProfile="full" version="1.1" width="330px" height="330px" style="fill: none; width: 330px; height: 330px;"><path d="M165,15 A150,150 0 0,0 15,165 A150,150 0 0,0 165,315 A150,150 0 0,0 315,165 A150,150 0 0,0 165,15 " style="stroke-width: 10; stroke-linecap: round; stroke-linejoin: round; stroke: rgb(17, 17, 17); fill: rgb(17, 17, 17);"/><path d="M135,75 A60,60 0 0,0 75,135 L75,135 L75,195 A60,60 0 0,0 135,255 A60,60 0 0,0 195,195 L195,195 L195,135 L195,135 L255,135 M195,135 A60,60 0 0,0 135,75 L135,75 L195,75 A60,60 0 0,1 255,135 L255,135 L255,195 A60,60 0 0,1 195,255 L195,255 L135,255 M195,195 L195,195 L255,195 M135,105 A30,30 0 0,0 105,135 L105,135 L105,195 A30,30 0 0,0 135,225 A30,30 0 0,0 165,195 L165,195 L165,135 A30,30 0 0,0 135,105 " style="stroke-width: 6; stroke-linecap: round; stroke-linejoin: round; stroke: rgb(255, 65, 54); fill: none;"/><path d="" style="stroke-width: 10; stroke-linecap: round; stroke-linejoin: round; stroke: rgb(255, 255, 255); fill: none;"/></svg>